Coordinates
version=1
nRows=17
nColumns=24
inDegrees=yes

Units are S.I. units (second, meters, Newtons, ...)
Angles are in degrees.

endheader
time	pelvis_tilt	pelvis_list	pelvis_rotation	pelvis_tx	pelvis_ty	pelvis_tz	hip_flexion_r	hip_adduction_r	hip_rotation_r	knee_angle_r	ankle_angle_r	subtalar_angle_r	mtp_angle_r	hip_flexion_l	hip_adduction_l	hip_rotation_l	knee_angle_l	ankle_angle_l	subtalar_angle_l	mtp_angle_l	lumbar_extension	lumbar_bending	lumbar_rotation
     30.48000000	     -1.79159319	     -3.05905142	      0.23372877	      0.00502653	      0.90293483	      0.01335306	     19.55471005	      6.44274590	     -2.00490794	    -15.92683275	      0.20214081	     -5.69069143	      0.00000000	     -8.92887020	     -1.35281421	     -2.24039983	    -29.81340273	      4.02595296	      9.04730033	      0.00000000	     -7.08514504	      4.32498450	     -8.04252367
     30.49000000	     -1.55728260	     -3.59543046	     -0.05499623	      0.00669344	      0.90378317	      0.01524934	     18.92930784	      7.23613612	     -1.79263124	    -16.81838052	      1.08263408	     -5.73514994	      0.00000000	     -8.04996359	     -2.27551595	     -2.84801114	    -33.03798658	      2.61516445	      9.87482881	      0.00000000	     -7.19046139	      4.85666424	     -7.68503917
     30.50000000	     -1.33191444	     -4.03166085	     -0.37166811	      0.00823333	      0.90469589	      0.01710963	     18.25666997	      7.90067308	     -1.64998150	    -17.58403216	      1.98590052	     -5.58408662	      0.00000000	     -7.03391336	     -3.10219636	     -3.35806702	    -36.35135076	      1.04644472	     10.64293313	      0.00000000	     -7.30844942	      5.25453841	     -7.31037511
     30.51000000	     -1.12476779	     -4.36595426	     -0.65966347	      0.00959007	      0.90546100	      0.01884710	     17.56109133	      8.41766406	     -1.60708144	    -18.26944691	      2.96885327	     -5.24389399	      0.00000000	     -5.83624307	     -3.79217276	     -3.80975134	    -39.81685804	     -0.54165641	     10.76101441	      0.00000000	     -7.42828448	      5.53793096	     -6.99188142
     30.52000000	     -0.95444098	     -4.60795295	     -0.93190740	      0.01055184	      0.90604335	      0.02045717	     16.88350489	      8.83212732	     -1.59189069	    -18.86940298	      3.97604446	     -4.95953596	      0.00000000	     -4.38676756	     -4.37277499	     -3.99910473	    -43.49359087	     -2.12726337	     10.86041211	      0.00000000	     -7.55717071	      5.71051759	     -6.64191485
     30.53000000	     -0.73248642	     -4.78477586	     -1.16002083	      0.01128458	      0.90667494	      0.02206408	     16.09052179	      9.18639367	     -1.48904353	    -19.30979290	      4.88126071	     -4.81835693	      0.00000000	     -2.84033793	     -4.86510144	     -4.07372461	    -47.23538236	     -3.86606317	     10.61117365	      0.00000000	     -7.78067409	      5.79048888	     -6.37491478
     30.54000000	     -0.45932837	     -4.93879611	     -1.31220156	      0.01191728	      0.90747217	      0.02355783	     15.21709224	      9.51214936	     -1.36986532	    -19.69520752	      5.76246619	     -4.83051866	      0.00000000	     -1.26801816	     -5.31541174	     -4.08711640	    -50.91201830	     -5.46736136	     10.09736826	      0.00000000	     -8.07431700	      5.83352127	     -6.05434397
     30.55000000	     -0.15264144	     -5.09834943	     -1.48457539	      0.01218584	      0.90813095	      0.02512144	     14.31365408	      9.87050016	     -1.05480209	    -20.07290228	      6.64354649	     -4.93749984	      0.00000000	      0.29859265	     -5.79507191	     -4.23949325	    -54.39140346	     -6.57034305	      9.36380403	      0.00000000	     -8.48217492	      5.86085604	     -5.64191918
     30.56000000	      0.19131979	     -5.27405676	     -1.59364921	      0.01226212	      0.90869338	      0.02647385	     13.36121154	     10.22078638	     -0.76020833	    -20.38566392	      7.44551921	     -5.12331108	      0.00000000	      1.77482680	     -6.25589316	     -4.40209508	    -57.56433386	     -6.92624844	      7.83306523	      0.00000000	     -8.92517959	      5.91141274	     -5.35654674
     30.57000000	      0.55074588	     -5.36848492	     -1.66095834	      0.01251693	      0.90962210	      0.02767234	     12.31433735	     10.44443218	     -0.53866600	    -20.55666863	      8.17591989	     -5.18934108	      0.00000000	      3.15742824	     -6.61195826	     -4.50194417	    -60.36222445	     -6.25864842	      5.90697491	      0.00000000	     -9.34343844	      5.86180163	     -5.04483309
     30.58000000	      0.90436023	     -5.42785327	     -1.66724478	      0.01217661	      0.91061440	      0.02868502	     11.22290784	     10.59331057	     -0.29483096	    -20.53236314	      8.77441084	     -5.18402134	      0.00000000	      4.61804827	     -6.86042508	     -4.55174058	    -62.89700186	     -5.26791370	      3.26544054	      0.00000000	     -9.82830389	      5.77974431	     -4.84397986
     30.59000000	      1.31111428	     -5.42089025	     -1.56203172	      0.01177438	      0.91175239	      0.02940910	     10.07265458	     10.62506680	     -0.22674214	    -20.48489824	      9.35971244	     -5.10618694	      0.00000000	      6.06287107	     -7.01399809	     -4.49044184	    -65.16779735	     -4.34958444	      0.41319696	      0.00000000	    -10.36978390	      5.63286201	     -4.73444612
     30.60000000	      1.67597729	     -5.29516128	     -1.57989259	      0.01140602	      0.91302116	      0.03001827	      8.93391109	     10.51824674	     -0.12698606	    -20.39794380	      9.97677935	     -4.88507798	      0.00000000	      7.46193863	     -7.00600208	     -4.39935376	    -67.06389095	     -3.24020751	     -1.76178679	      0.00000000	    -10.84246941	      5.35951871	     -4.48114806
     30.61000000	      1.94543795	     -5.14171819	     -1.58326263	      0.01092176	      0.91440632	      0.03053547	      7.85176761	     10.37834001	     -0.03329320	    -20.18796552	     10.41657861	     -4.75440317	      0.00000000	      8.95361835	     -6.95923635	     -4.30808612	    -68.67315553	     -2.58408456	     -3.93814132	      0.00000000	    -11.20556182	      5.06728742	     -4.27641520
     30.62000000	      2.18506424	     -4.97846065	     -1.56884723	      0.01016711	      0.91569972	      0.03094917	      6.78451854	     10.22153967	      0.04255846	    -19.91799877	     10.84993304	     -4.55240148	      0.00000000	     10.49539367	     -6.89551714	     -4.15292630	    -70.02773191	     -1.72800470	     -5.10411336	      0.00000000	    -11.55311387	      4.77550158	     -4.12225890
     30.63000000	      2.32923224	     -4.74738661	     -1.63483321	      0.00921044	      0.91674731	      0.03128905	      5.91951915	      9.99042719	      0.09140077	    -19.80250333	     11.25638433	     -4.41252633	      0.00000000	     12.07513444	     -6.72250618	     -4.03566864	    -71.06843529	     -0.82698005	     -5.95369538	      0.00000000	    -11.80769566	      4.42495165	     -3.88142544
     30.64000000	      2.41516898	     -4.47767109	     -1.68115055	      0.00827010	      0.91796001	      0.03150586	      5.08104705	      9.68265571	     -0.00251264	    -19.60487545	     11.61001036	     -4.11336304	      0.00000000	     13.63571627	     -6.46361829	     -3.71545565	    -71.76022475	      0.03935031	     -5.80409640	      0.00000000	    -11.96884905	      4.04088018	     -3.66731300
